<?xml version="1.0" encoding="utf-8"?>
<!-- Generator: Adobe Illustrator 19.2.1, SVG Export Plug-In . SVG Version: 6.00 Build 0)  -->
<svg version="1.1" id="Layer_1" xmlns="http://www.w3.org/2000/svg" xmlns:xlink="http://www.w3.org/1999/xlink" x="0px" y="0px"
	 viewBox="0 0 500 400" style="enable-background:new 0 0 500 400;" xml:space="preserve">
<style type="text/css">
	.st0{fill:#CCCCCC;}
	.st1{fill:#006837;}
	.st2{fill:#8CC63F;}
	.st3{fill:#603813;}
	.st4{fill:#B3B3B3;}
</style>
<g>
	<path class="st1" d="M108.8,101.4c0.2,1.6-1.2,2.7-2.9,3c-1.5,0.3-3.1-0.1-3.7-1.5c-0.7-1.6-2.3-12.6-2.5-15.9
		c-0.1-1.1,0.3-4,4.3-4.5c10.8-1.2,47.2-8.1,56.9-10.2c3.8-0.8,4.7,1.8,5,2.8c0.8,3.2,2.7,12.1,3.2,15.3c0.2,1.7-1.4,3-3.3,3.3
		c-1.7,0.3-3.6-0.2-4-2.2c-1.7-7.5-7-11.4-15.1-9.8c-4.8,1-4.9,2.8-4.5,6.3c1.3,10.3,5.7,34,9.5,48.6c0.8,2.9,2.6,4.4,7.5,3
		c2.1-0.7,3.4,1,3.8,2.8c0.3,1.8-0.4,3.9-2.5,4.1c-7.8,1.1-25.2,4.3-30.7,5.5c-2.5,0.6-3.9-1.1-4.2-2.9s0.4-3.7,2.2-3.9
		c3.8-0.5,7.4-1.5,6.9-5.6c-1.7-14.7-5.8-36.5-8-48.3c-0.9-4.3-1.8-5.7-6.8-4.8C111.8,87.9,107.6,93.2,108.8,101.4z"/>
	<path class="st1" d="M247.2,131.8c1.3,0.1,1.8,1.6,1.6,3.1c-0.2,1.6-1.1,3.1-2.5,3.4c-1.2,0.1-6.7,0.6-11,0.2
		c-11.4-1.1-19.3-22.9-23.3-29.4c-0.7-1.1-1.7-3-3.8-3.2l-1.2-0.1c-1.1-0.1-2.3,0-2.5,2.3c-0.3,3.1-0.9,11.3-0.9,13.8
		c0,5.3,2.3,5.5,7,5.5c2,0.1,2.9,2,2.7,3.8c-0.2,1.8-1.4,3.6-3.6,3.3c-7.7-1.2-20.7-2.5-29.8-3c-2.4-0.1-3.4-1.9-3.2-3.8
		c0.2-1.9,1.7-3.8,4.1-3.2c2.3,0.6,5.6,1.1,6.4-4c2.2-13.1,4.8-43.6,5.1-49.8c0.1-4.3-1.3-3.9-5.3-4c-2,0-2.9-2-2.7-3.8
		c0.2-1.7,1.3-3.4,3.2-3.2c9.1,0.3,24,1.6,27.3,1.9c20,2,30.1,8.7,28.7,22.2c-1.3,12.9-13.2,17.4-15.6,18.3
		c-2.3,0.7-2.3,2.1-1.1,3.9C230.8,111.6,239.9,131.1,247.2,131.8z M210.5,98.5c9.1,0.9,15.5-6.2,16.3-15C227.9,73,222,69,212.5,68
		c-3.9-0.4-4.4,1.8-4.6,2.8c-0.7,3.4-2.1,20.6-2,23.2c-0.1,2.8,0,4,2,4.2C209.5,98.4,209.2,98.3,210.5,98.5z"/>
	<path class="st2" d="M291.6,123c1.5,0,4.4-0.1,5.8-0.3c6.4-0.5,11.1-5,12.6-11.4c0.5-2.2,2-3.2,3.6-3.2c2.4,0,4.8,2.2,4,5.7
		c-1.2,4-2.7,10.4-3.3,14.2c-0.2,0.7-0.7,1.9-3.3,2c-13.8,0-16.3-0.5-38.1-0.5c-3.7,0-9,0.5-11.1,0.5c-2.4,0.2-3.5-1.6-3.5-3.4
		c0-1.9,1.3-4,3.3-3.6c4.9,0.7,6.2-3.2,6.3-5.3c0.5-9.2,0.6-41.1,0-51.7c-0.1-2.2-2.5-2.4-5.9-1.9c-2.1,0.2-3.3-1.7-3.3-3.6
		c0-1.7,1.1-3.4,3.3-3.3c9.2,0.5,36.6,0.7,47.9,0.1c4.3-0.2,5.7,1.2,5.3,3.5c-0.3,2.9-1,9.6-1.1,11.2c-0.2,2.2-2.2,3.2-4.1,3.2
		c-1.8,0-3.4-0.9-3.4-2.6c0.3-7.2-3.6-8.7-17.1-8.7c-4.4,0-5.3,2.6-5.5,5c-0.2,2.8-0.4,14.3-0.1,17.2c0.1,1.8,0.5,3.2,2.7,3.4
		c1.3,0.1,7.1,0.1,8.7-0.1c3.1-0.3,4.6-1.3,4.6-5.6c0-2,1.8-3.1,3.5-3.1c1.9,0,3.7,1.2,3.6,3.5c-0.4,9.3-0.3,10.7-0.1,17.1
		c0.1,3-1.8,4.2-3.7,4.2c-1.9,0-3.7-1.2-3.6-3.2c0.2-3.8-1.5-5.5-4.3-5.8c-1.9-0.2-7.2-0.2-8.7-0.1c-1.6,0.2-2.4,1.4-2.6,3.5
		c-0.4,4.3-0.1,12.7,0.3,17.1C284.6,121.1,286.2,123,291.6,123z"/>
	<path class="st1" d="M355.8,151.7c1.5,0.2,4.3,0.5,5.8,0.5c6.4,0.4,11.7-3.3,14.2-9.4c0.9-2.1,2.5-2.9,4.1-2.6
		c2.3,0.4,4.4,2.9,3.1,6.2c-1.8,3.7-4.2,9.9-5.4,13.6c-0.3,0.7-1,1.8-3.6,1.5c-13.6-2.1-16-3-37.6-6.2c-3.7-0.6-9-0.8-11.1-1.1
		c-2.4-0.1-3.2-2.1-3-3.9c0.3-1.9,1.9-3.7,3.8-3.1c4.8,1.5,6.6-2.2,7-4.3c1.9-9,6.8-40.5,7.7-51.2c0.2-2.2-2.1-2.7-5.5-2.8
		c-2.1-0.1-3-2.2-2.7-4.1c0.3-1.7,1.6-3.2,3.8-2.8c9,1.9,36,6.2,47.3,7.3c4.3,0.4,5.4,2,4.8,4.3c-0.7,2.8-2.4,9.4-2.7,10.9
		c-0.5,2.2-2.7,2.8-4.5,2.6c-1.8-0.3-3.3-1.4-3-3c1.4-7-2.3-9.1-15.6-11.1c-4.3-0.7-5.7,1.7-6.1,4.2c-0.6,2.7-2.6,14.1-2.7,17
		c-0.2,1.8,0,3.3,2.1,3.8c1.3,0.3,7,1.2,8.6,1.2c3.1,0.1,4.7-0.6,5.4-4.8c0.3-2,2.3-2.8,4-2.5c1.9,0.3,3.5,1.7,3.1,4
		c-1.8,9.1-1.9,10.5-2.7,16.9c-0.3,3-2.4,3.9-4.3,3.6c-1.9-0.3-3.5-1.7-3.1-3.7c0.8-3.8-0.7-5.6-3.4-6.3c-1.9-0.5-7.1-1.3-8.5-1.4
		c-1.6,0-2.5,1-3.1,3.1c-1.1,4.2-2,12.6-2.2,17C349.2,148.8,350.5,150.9,355.8,151.7z"/>
	<path class="st1" d="M129,227.2c-0.6-3.8-2.2-11.7-3.1-15.1c-0.7-2.5-2.1-2.7-4.1-2.6c-4.6,0.5-18,3.3-24.3,5.2
		c-2.3,0.7-3.2,1.7-2.9,4.3c0.7,5.3,2.7,13.4,3.5,15.9c0.8,2.5,1.4,3.1,5.7,1.9c1.9-0.6,3.2,0.7,3.5,2.2c0.3,1.6-0.4,3.5-2.3,3.8
		c-7.1,1.3-18.7,3.4-25.5,5.2c-2.2,0.5-3.5-0.9-3.8-2.4c-0.3-1.5,0.4-3.2,2.2-3.5c2.6-0.3,6-0.9,5.3-5c-4-20.9-8.9-44.1-9.9-46.3
		c-0.8-1.7-1.9-2.7-4.9-1.6c-1.5,0.6-2.8-0.9-3.2-2.5c-0.3-1.5,0.2-3.1,1.9-3.5c9-1.6,17.4-3.2,23.3-4.8c2.3-0.5,3.5,0.7,3.8,2.1
		c0.3,1.7-0.5,3.7-2.1,3.9c-3.6,0.3-4.5,0.9-3.9,4.2c0,0,2.1,11.7,3.2,15.8c0.4,2.1,1.2,3.6,3.8,3.3c3.1-0.4,20.3-4.1,25.2-5.7
		c1.9-0.7,3-2.4,2.8-3.7c-1.3-7-3-14.9-3.8-16.8c-0.8-2.2-2.3-2.8-5.3-1.9c-1.6,0.4-2.7-0.9-3.1-2.4c-0.3-1.6,0.3-3.3,2.1-3.5
		c9.3-1.2,16.8-3.2,22.6-4.6c2.3-0.6,3.5,0.7,3.8,2.1c0.3,1.5-0.4,3.4-1.6,3.6c-3.6,0.5-4,1.2-4,3.3c0.1,1.5,7.7,40.5,9.8,47
		c0.9,2.5,1.9,3.1,5.7,2c2-0.6,3.4,0.8,3.7,2.4c0.3,1.7-0.3,3.6-2.4,3.8c-6.3,0.8-21.4,4.3-25.4,5.2c-2.1,0.4-3.3-0.9-3.6-2.4
		c-0.3-1.6,0.4-3.3,2.1-3.5C126.6,232.5,129.8,232,129,227.2z"/>
	<path class="st2" d="M188.4,151.6c24.7,0,39.8,13.9,39.8,37c0,22.1-15.5,38.4-39.8,38.4c-24.7,0-39.3-15.2-39.3-38.4
		C149.1,166.7,164.9,151.6,188.4,151.6z M191.2,219.1c12.5,0,19.6-11.2,19.6-26.3c0-21.2-11.3-33.4-24.7-33.4
		c-12.3,0-19.6,9.6-19.6,25.2C166.5,205.7,177.8,219.1,191.2,219.1z"/>
	<path class="st1" d="M295.1,160.3c0.3-5.6-1.3-8.2-8.4-8.5c-2,0-3-1.9-2.9-3.7c0.1-1.7,1.2-3.3,3.5-3.1c9.4,1.4,16.4,1.5,23,1.6
		c2.8,0.1,3.7,1.9,3.6,3.6c-0.1,1.8-1.4,3.5-3.2,3.3c-4.8-0.4-6.1,3.1-6.6,7.2c-1,10.6-3,40.6-3.8,50.6c-1.4,17.8-9.7,30-32.5,28.5
		c-18.2-1.2-29.1-10.4-27.5-33.2c1-14.3,1.5-22.4,2.2-32.5c0.2-2.8-2.3-4.2-5.6-4.1c-2,0.2-3-1.7-2.9-3.5c0.1-1.7,1.3-3.3,3.3-3.1
		c11.1,1.6,21.8,1.8,28.5,1.9c2.7,0.2,3.6,1.9,3.5,3.6c-0.1,1.8-1.4,3.5-3.3,3.2c-4.5-0.7-6.1,0.8-6.5,3.1
		c-1.2,10.3-2.2,22.7-2.3,33.1c-0.2,12.5,2.8,21.8,16.1,22.7c11.4,0.8,16.7-5.8,18.1-20.3C292.6,199.3,294.5,172,295.1,160.3z"/>
	<path class="st1" d="M315.2,235.4c-0.1-2.7,0.4-9.4,1.2-12.6c0.5-1.8,2.7-2.7,4.6-2.7c1.8,0,3.5,0.7,3.5,2.5c0,6.3,4.2,13,12.4,13
		c6.6,0,11-4.1,11-9.3c0-13.7-32.2-17.2-32.2-38.8c0-9.8,7.6-19.8,25-19.8c9.7,0,19.4,2.5,20.6,4c1.4,1,1.4,10.2,1.3,14.3
		c-0.1,2.6-2.8,4.1-5.1,4.1c-1.8,0-3.3-0.9-3.4-2.9c-0.3-7.6-5-12.5-12.4-12.5c-6.2,0-10.6,3.7-10.6,8.4c0,15.1,33.7,17.9,33.7,38.1
		c0,11.1-8.4,21.8-26.8,21.8C326.5,243,315.5,239.1,315.2,235.4z"/>
	<path class="st2" d="M399.6,245.7c1.5,0.3,4.3,0.7,5.7,0.8c6.4,0.7,11.9-2.8,14.6-8.8c1-2.1,2.6-2.8,4.2-2.4
		c2.3,0.5,4.3,3.1,2.8,6.3c-1.9,3.7-4.6,9.7-6,13.3c-0.4,0.7-1.1,1.7-3.6,1.3c-13.5-2.7-15.8-3.7-37.2-7.9c-3.7-0.7-8.9-1.2-11-1.6
		c-2.3-0.2-3.1-2.3-2.8-4c0.4-1.9,2-3.6,4-2.9c4.7,1.7,6.7-1.9,7.2-4c2.3-8.9,8.6-40.1,10.1-50.8c0.3-2.2-2-2.8-5.4-3
		c-2.1-0.2-2.9-2.3-2.5-4.2c0.3-1.7,1.7-3.1,3.9-2.6c8.9,2.3,35.7,7.9,47,9.4c4.2,0.6,5.3,2.3,4.6,4.5c-0.9,2.8-2.8,9.3-3.2,10.8
		c-0.6,2.2-2.8,2.7-4.6,2.4c-1.8-0.4-3.2-1.5-2.9-3.2c1.7-7-1.9-9.2-15.1-11.8c-4.3-0.9-5.7,1.5-6.3,3.9c-0.8,2.7-3.2,14-3.5,16.9
		c-0.2,1.8-0.1,3.3,2,3.9c1.2,0.4,6.9,1.5,8.5,1.6c3.1,0.3,4.8-0.4,5.6-4.6c0.4-2,2.4-2.7,4.1-2.4c1.9,0.4,3.4,1.9,2.9,4.2
		c-2.2,9-2.4,10.4-3.4,16.8c-0.5,3-2.6,3.7-4.5,3.4c-1.9-0.4-3.4-1.9-2.9-3.9c1-3.7-0.4-5.6-3.1-6.5c-1.8-0.6-7-1.6-8.5-1.8
		c-1.6-0.1-2.6,0.9-3.2,3c-1.3,4.1-2.6,12.5-3,16.8C393.2,242.5,394.4,244.7,399.6,245.7z"/>
	<path class="st3" d="M209.5,250.3c-1.7-2-2.8-4.2-7.5-3.7c-1.9,0.2-3-1.6-3-3.4c0-1.7,1-3.4,3.2-3.3c13,0.6,23.5,0.4,30.5,0
		c2.6,0,3.6,1.6,3.6,3.3c0,1.8-1.3,3.7-3.1,3.4c-4.2-0.5-6.6,1-4.5,4.2c2.1,3.4,31.3,40.1,35.1,44.4c2.1,2.2,3.4,1.4,5-0.4
		c3.3-3.5,16.9-22.9,19.4-26.9c1.5-2.2,1.1-4.7-5-4.2c-2.1,0.2-3.2-1.6-3.2-3.4c0-1.7,1-3.3,3.2-3.3c8,0.2,14.9,0.7,25.4,0
		c2.6-0.1,3.6,1.6,3.6,3.3c0,1.8-1.2,3.5-3.1,3.4c-4.7-0.1-6.5,1.6-9.5,4.6c-4,4.2-20.9,27.2-25.2,33.2c-1.4,2-2.2,3.1-0.4,6
		c3.7,5.9,11.9,17.4,20.3,26.3c2,2.2,3.4,3.1,7.1,2.7c2.4-0.3,3.6,1.6,3.6,3.5c0,1.8-1.2,3.6-3.4,3.5c-8-0.5-22.9-0.6-33.4,0
		c-2.2,0.2-3.4-1.6-3.4-3.5c0-1.8,1.1-3.6,3.3-3.4c3.3,0.3,6.6-0.2,4.3-4.2c-2-3.7-6.7-10.2-9.7-13.6c-0.9-1-2-2.8-4.8-0.1
		c-3.2,3-7.6,9.2-9.9,13.2c-1.9,3-2,5.2,3.2,4.7c2.5-0.3,3.6,1.6,3.6,3.5c0,1.7-1,3.4-2.9,3.4c-9.3-0.2-18.5-0.6-25.7,0
		c-2.9,0.1-4.2-1.6-4.2-3.4c0-1.8,1.4-3.8,3.3-3.6c4.2,0.5,8.8-2.2,10.9-4.8c4.8-5.7,12-14.1,16-19.9c1.8-2.6,2-3.5,0.2-6.2
		C246.8,296.7,216,258.2,209.5,250.3z"/>
	<g>
		<path class="st1" d="M411.8,80.2v-1.3h6.5v1.3h-2.5v6.3h-1.5v-6.3H411.8z M421.7,78.9l1.9,5.4l1.9-5.4h2.2v7.6h-1.4v-6.1l-2.1,6.1
			H423l-2.1-6.1v6.1h-1.4v-7.6H421.7z"/>
	</g>
</g>
</svg>
