<?xml version="1.0" encoding="utf-8"?>
<!-- Generator: Adobe Illustrator 19.2.1, SVG Export Plug-In . SVG Version: 6.00 Build 0)  -->
<svg version="1.1" id="Layer_1" xmlns="http://www.w3.org/2000/svg" xmlns:xlink="http://www.w3.org/1999/xlink" x="0px" y="0px"
	 viewBox="0 0 500 400" style="enable-background:new 0 0 500 400;" xml:space="preserve">
<style type="text/css">
	.st0{fill:#CCCCCC;}
	.st1{fill:#006837;}
	.st2{fill:#8CC63F;}
	.st3{fill:#603813;}
	.st4{fill:#B3B3B3;}
</style>
<path class="st0" d="M-955,250h-230c-6.6,0-12-5.4-12-12v-17c0-6.6,5.4-12,12-12h230c6.6,0,12,5.4,12,12v17
	C-943,244.6-948.4,250-955,250z"/>
<g>
	<path class="st1" d="M-1174.7-17.1c0.1,1.2-0.9,2-2.2,2.2c-1.1,0.2-2.3-0.1-2.8-1.1c-0.5-1.2-1.7-9.4-1.9-11.8
		c-0.1-0.8,0.2-2.9,3.2-3.3c8-0.9,35-6,42.2-7.6c2.8-0.6,3.5,1.3,3.7,2.1c0.6,2.4,2,9,2.4,11.3c0.1,1.3-1.1,2.2-2.5,2.5
		c-1.2,0.2-2.7-0.2-2.9-1.6c-1.2-5.6-5.2-8.5-11.2-7.2c-3.6,0.7-3.6,2.1-3.3,4.7c1,7.6,4.2,25.2,7,36c0.6,2.1,2,3.3,5.5,2.2
		c1.5-0.5,2.5,0.7,2.8,2.1s-0.3,2.9-1.9,3.1c-5.8,0.8-18.7,3.2-22.8,4.1c-1.9,0.4-2.9-0.9-3.1-2.2s0.3-2.7,1.7-2.9
		c2.8-0.3,5.5-1.1,5.1-4.1c-1.2-10.9-4.3-27.1-5.9-35.8c-0.7-3.2-1.3-4.2-5.1-3.5C-1172.4-27.1-1175.5-23.1-1174.7-17.1z"/>
	<path class="st1" d="M-1072.1,5.4c0.9,0.1,1.3,1.2,1.2,2.3c-0.1,1.2-0.8,2.3-1.8,2.5c-0.9,0.1-5,0.5-8.1,0.1
		c-8.4-0.8-14.3-17-17.2-21.8c-0.5-0.9-1.3-2.2-2.8-2.4l-0.9-0.1c-0.8-0.1-1.7,0-1.8,1.7c-0.2,2.3-0.7,8.4-0.6,10.2
		c0,3.9,1.7,4.1,5.2,4.1c1.5,0.1,2.2,1.5,2,2.8c-0.1,1.3-1.1,2.7-2.6,2.4c-5.7-0.9-15.3-1.9-22.1-2.2c-1.7-0.1-2.5-1.4-2.3-2.8
		c0.1-1.4,1.2-2.8,3-2.4c1.7,0.4,4.1,0.8,4.8-2.9c1.6-9.7,3.6-32.3,3.8-36.9c0.1-3.2-1-2.9-3.9-2.9c-1.5,0-2.2-1.5-2-2.8
		c0.1-1.3,1-2.5,2.4-2.4c6.7,0.2,17.8,1.2,20.2,1.4c14.8,1.5,22.3,6.5,21.3,16.5c-1,9.5-9.8,12.9-11.6,13.6
		c-1.7,0.5-1.7,1.6-0.8,2.9C-1084.3-9.5-1077.6,4.9-1072.1,5.4z M-1099.3-19.3c6.8,0.7,11.4-4.6,12.1-11.1
		c0.8-7.7-3.6-10.7-10.6-11.4c-2.9-0.3-3.2,1.3-3.4,2c-0.5,2.5-1.5,15.3-1.5,17.2c0,2.1,0,2.9,1.5,3.1
		C-1100.1-19.3-1100.3-19.4-1099.3-19.3z"/>
	<path class="st2" d="M-1039.3-1.1c1.1,0,3.2-0.1,4.3-0.2c4.8-0.4,8.2-3.7,9.3-8.5c0.4-1.7,1.5-2.4,2.7-2.4c1.7,0,3.6,1.7,2.9,4.2
		c-0.9,2.9-2,7.7-2.5,10.5c-0.2,0.6-0.6,1.4-2.5,1.5c-10.2,0-12-0.4-28.2-0.4c-2.8,0-6.7,0.4-8.2,0.4c-1.7,0.2-2.6-1.2-2.6-2.5
		c0-1.4,1-2.9,2.5-2.7c3.6,0.6,4.6-2.4,4.7-4c0.4-6.8,0.5-30.4,0-38.3c-0.1-1.7-1.8-1.7-4.4-1.4c-1.6,0.2-2.5-1.3-2.5-2.7
		c0-1.3,0.8-2.5,2.5-2.5c6.8,0.4,27.1,0.6,35.5,0.1c3.2-0.2,4.2,0.9,4,2.6c-0.2,2.1-0.7,7.1-0.8,8.3c-0.2,1.7-1.7,2.4-3,2.4
		c-1.3,0-2.5-0.6-2.5-1.9c0.2-5.3-2.7-6.4-12.7-6.4c-3.2,0-4,1.9-4,3.7c-0.2,2.1-0.3,10.6-0.1,12.7c0.1,1.3,0.4,2.4,2,2.5
		c1,0.1,5.2,0.1,6.4-0.1c2.3-0.2,3.4-0.9,3.4-4.1c0-1.5,1.3-2.3,2.6-2.3c1.4,0,2.8,0.9,2.7,2.6c-0.3,6.9-0.2,7.9-0.1,12.7
		c0.1,2.2-1.3,3.1-2.8,3.1c-1.4,0-2.8-0.9-2.7-2.4c0.2-2.9-1.1-4-3.2-4.3c-1.4-0.2-5.3-0.2-6.4-0.1c-1.2,0.2-1.7,1-1.9,2.6
		c-0.3,3.2-0.1,9.4,0.2,12.7C-1044.4-2.5-1043.3-1.1-1039.3-1.1z"/>
	<path class="st1" d="M-991.7,20.2c1.1,0.2,3.2,0.4,4.3,0.4c4.8,0.3,8.7-2.4,10.5-7c0.6-1.6,1.8-2.1,3-1.9c1.7,0.3,3.3,2.2,2.3,4.6
		c-1.3,2.8-3.1,7.3-4,10c-0.2,0.5-0.8,1.3-2.7,1.1c-10.1-1.5-11.8-2.2-27.8-4.6c-2.7-0.4-6.6-0.6-8.2-0.8c-1.7-0.1-2.4-1.6-2.2-2.9
		c0.2-1.4,1.4-2.8,2.8-2.3c3.5,1.1,4.9-1.7,5.2-3.2c1.4-6.7,5-30,5.7-37.9c0.2-1.7-1.5-2-4.1-2.1c-1.6-0.1-2.2-1.6-2-3
		c0.2-1.3,1.2-2.4,2.8-2.1c6.7,1.4,26.7,4.6,35.1,5.4c3.2,0.3,4,1.5,3.5,3.2c-0.6,2.1-1.8,6.9-2,8.1c-0.4,1.6-2,2.1-3.3,1.9
		c-1.3-0.2-2.4-1-2.2-2.3c1-5.2-1.7-6.7-11.6-8.2c-3.2-0.5-4.2,1.3-4.5,3.1c-0.5,2-1.9,10.4-2,12.6c-0.1,1.3,0,2.4,1.6,2.8
		c0.9,0.2,5.2,0.9,6.4,0.9c2.3,0.1,3.5-0.4,4-3.6c0.2-1.5,1.7-2.1,2.9-1.9c1.4,0.2,2.6,1.3,2.3,3c-1.3,6.8-1.4,7.8-2,12.5
		c-0.3,2.2-1.8,2.9-3.2,2.6c-1.4-0.2-2.6-1.3-2.3-2.8c0.6-2.8-0.5-4.2-2.5-4.7c-1.4-0.4-5.2-0.9-6.3-1c-1.2,0-1.9,0.8-2.3,2.3
		c-0.8,3.1-1.5,9.3-1.7,12.6C-996.6,18-995.7,19.6-991.7,20.2z"/>
	<path class="st1" d="M-1159.7,76.1c-0.4-2.8-1.6-8.6-2.3-11.2c-0.5-1.9-1.6-2-3-1.9c-3.4,0.3-13.3,2.5-18,3.9
		c-1.7,0.5-2.4,1.3-2.2,3.2c0.5,3.9,2,9.9,2.6,11.8c0.6,1.8,1.1,2.3,4.2,1.4c1.4-0.4,2.4,0.5,2.6,1.7c0.2,1.2-0.3,2.6-1.7,2.8
		c-5.3,0.9-13.8,2.6-18.9,3.9c-1.6,0.4-2.6-0.6-2.8-1.7c-0.2-1.1,0.3-2.4,1.7-2.6c1.9-0.2,4.4-0.7,3.9-3.7
		c-3-15.5-6.6-32.7-7.3-34.3c-0.6-1.3-1.4-2-3.6-1.2c-1.1,0.5-2.1-0.7-2.3-1.8c-0.2-1.1,0.1-2.3,1.4-2.6c6.7-1.2,12.9-2.4,17.3-3.6
		c1.7-0.3,2.6,0.5,2.8,1.5c0.3,1.3-0.4,2.8-1.5,2.9c-2.6,0.3-3.4,0.7-2.9,3.1c0,0,1.6,8.6,2.3,11.7c0.3,1.5,0.9,2.7,2.8,2.5
		c2.3-0.3,15.1-3,18.7-4.2c1.4-0.5,2.2-1.8,2.1-2.8c-1-5.2-2.2-11.1-2.8-12.5c-0.6-1.6-1.7-2-3.9-1.4c-1.2,0.3-2-0.7-2.3-1.8
		c-0.2-1.2,0.2-2.5,1.6-2.6c6.9-0.9,12.4-2.3,16.7-3.4c1.7-0.4,2.6,0.5,2.8,1.5c0.2,1.1-0.3,2.5-1.2,2.7c-2.7,0.4-3,0.9-2.9,2.4
		c0.1,1.1,5.7,30,7.2,34.8c0.7,1.8,1.4,2.3,4.2,1.5c1.5-0.5,2.5,0.6,2.8,1.8c0.3,1.3-0.3,2.7-1.7,2.8c-4.7,0.6-15.8,3.2-18.8,3.9
		c-1.5,0.3-2.5-0.7-2.7-1.8c-0.2-1.2,0.3-2.5,1.6-2.6C-1161.5,80-1159.1,79.6-1159.7,76.1z"/>
	<path class="st2" d="M-1115.7,20.1c18.3,0,29.5,10.3,29.5,27.4c0,16.4-11.5,28.4-29.5,28.4c-18.3,0-29.1-11.2-29.1-28.4
		C-1144.9,31.3-1133.1,20.1-1115.7,20.1z M-1113.7,70.1c9.3,0,14.5-8.3,14.5-19.5c0-15.7-8.4-24.7-18.3-24.7
		c-9.1,0-14.5,7.1-14.5,18.7C-1131.9,60.2-1123.6,70.1-1113.7,70.1z"/>
	<path class="st1" d="M-1036.7,26.6c0.2-4.1-0.9-6.1-6.2-6.3c-1.5,0-2.2-1.4-2.1-2.8c0.1-1.3,0.9-2.5,2.6-2.3c7,1,12.1,1.1,17.1,1.2
		c2.1,0.1,2.8,1.4,2.7,2.6c-0.1,1.3-1.1,2.6-2.4,2.5c-3.6-0.3-4.5,2.3-4.9,5.3c-0.8,7.9-2.2,30.1-2.8,37.5
		c-1.1,13.2-7.2,22.2-24,21.1c-13.5-0.9-21.5-7.7-20.4-24.6c0.7-10.6,1.1-16.6,1.6-24.1c0.1-2.1-1.7-3.1-4.2-3.1
		c-1.5,0.1-2.2-1.3-2.1-2.6c0.1-1.3,1-2.5,2.5-2.3c8.3,1.2,16.2,1.3,21.1,1.4c2,0.1,2.7,1.4,2.6,2.6c-0.1,1.3-1.1,2.6-2.5,2.4
		c-3.3-0.5-4.5,0.6-4.8,2.3c-0.9,7.6-1.6,16.8-1.7,24.5c-0.2,9.3,2.1,16.2,12,16.8c8.5,0.6,12.4-4.3,13.4-15
		C-1038.5,55.4-1037.2,35.2-1036.7,26.6z"/>
	<path class="st1" d="M-1021.8,82.2c-0.1-2,0.3-7,0.9-9.3c0.4-1.3,2-2,3.4-2c1.3,0,2.6,0.6,2.6,1.8c0,4.7,3.1,9.7,9.2,9.7
		c4.9,0,8.2-3,8.2-6.9c0-10.1-23.8-12.7-23.8-28.7c0-7.3,5.6-14.6,18.5-14.6c7.2,0,14.3,1.8,15.3,2.9c1,0.7,1,7.5,1,10.6
		c-0.1,1.9-2.1,3-3.8,3c-1.3,0-2.5-0.6-2.5-2.1c-0.2-5.6-3.7-9.3-9.2-9.3c-4.6,0-7.8,2.8-7.8,6.3c0,11.2,24.9,13.2,24.9,28.2
		c0,8.2-6.3,16.2-19.9,16.2C-1013.4,87.8-1021.6,84.9-1021.8,82.2z"/>
	<path class="st2" d="M-959.3,89.8c1.1,0.2,3.2,0.6,4.2,0.6c4.7,0.5,8.8-2,10.8-6.5c0.7-1.6,1.9-2,3.1-1.8c1.7,0.3,3.2,2.3,2.1,4.7
		c-1.4,2.7-3.4,7.1-4.5,9.9c-0.3,0.5-0.8,1.3-2.7,1c-10-2-11.7-2.7-27.6-5.9c-2.7-0.5-6.6-0.9-8.2-1.2c-1.7-0.2-2.3-1.7-2.1-3
		c0.3-1.4,1.5-2.7,2.9-2.2c3.5,1.3,5-1.4,5.4-3c1.7-6.6,6.4-29.7,7.5-37.6c0.2-1.6-1.4-2.1-4-2.2c-1.6-0.2-2.2-1.7-1.9-3.1
		c0.2-1.2,1.3-2.3,2.9-1.9c6.6,1.7,26.5,5.8,34.8,7c3.1,0.5,3.9,1.7,3.4,3.3c-0.7,2.1-2.1,6.9-2.4,8c-0.5,1.6-2.1,2-3.4,1.7
		c-1.3-0.3-2.4-1.1-2.1-2.4c1.3-5.2-1.4-6.8-11.2-8.8c-3.2-0.6-4.3,1.1-4.7,2.9c-0.6,2-2.4,10.3-2.6,12.5c-0.2,1.3-0.1,2.4,1.4,2.9
		c0.9,0.3,5.1,1.1,6.3,1.2c2.3,0.2,3.5-0.3,4.1-3.4c0.3-1.5,1.8-2,3-1.7c1.4,0.3,2.6,1.4,2.1,3.1c-1.7,6.7-1.8,7.7-2.5,12.4
		c-0.4,2.2-1.9,2.8-3.3,2.5c-1.4-0.3-2.5-1.4-2.2-2.9c0.7-2.8-0.3-4.2-2.3-4.8c-1.4-0.4-5.2-1.2-6.3-1.3c-1.2-0.1-1.9,0.7-2.4,2.2
		c-0.9,3-1.9,9.2-2.2,12.5C-964.1,87.4-963.2,89-959.3,89.8z"/>
	<path class="st3" d="M-1100.1,93.2c-1.3-1.5-2.1-3.1-5.5-2.8c-1.4,0.2-2.2-1.2-2.2-2.5c0-1.3,0.7-2.5,2.4-2.5
		c9.7,0.5,17.4,0.3,22.6,0c1.9,0,2.7,1.2,2.7,2.5c0,1.3-0.9,2.8-2.3,2.5c-3.1-0.4-4.9,0.7-3.3,3.1c1.6,2.5,23.2,29.7,26,32.9
		c1.6,1.7,2.5,1,3.7-0.3c2.5-2.6,12.5-17,14.4-19.9c1.1-1.7,0.8-3.5-3.7-3.1c-1.6,0.2-2.4-1.2-2.4-2.5c0-1.3,0.7-2.5,2.4-2.5
		c5.9,0.2,11,0.6,18.8,0c1.9-0.1,2.7,1.2,2.7,2.5c0,1.3-0.9,2.6-2.3,2.5c-3.5-0.1-4.8,1.2-7,3.4c-2.9,3.1-15.5,20.1-18.7,24.6
		c-1,1.5-1.7,2.3-0.3,4.4c2.8,4.4,8.8,12.9,15,19.5c1.5,1.7,2.5,2.3,5.2,2c1.7-0.2,2.7,1.2,2.7,2.6c0,1.3-0.9,2.7-2.5,2.6
		c-5.9-0.4-16.9-0.5-24.7,0c-1.7,0.2-2.5-1.2-2.5-2.6c0-1.3,0.8-2.7,2.5-2.5c2.5,0.2,4.9-0.2,3.2-3.1c-1.5-2.8-5-7.5-7.2-10.1
		c-0.6-0.7-1.5-2.1-3.6-0.1c-2.4,2.2-5.6,6.8-7.4,9.7c-1.4,2.2-1.5,3.9,2.4,3.5c1.8-0.2,2.7,1.2,2.7,2.6c0,1.3-0.7,2.5-2.1,2.5
		c-6.9-0.2-13.7-0.5-19,0c-2.1,0.1-3.1-1.2-3.1-2.5c0-1.3,1-2.9,2.5-2.7c3.1,0.4,6.5-1.7,8.1-3.6c3.6-4.2,8.9-10.5,11.9-14.7
		c1.3-1.9,1.5-2.6,0.2-4.6C-1072.5,127.6-1095.3,99-1100.1,93.2z"/>
	<g>
		<path class="st1" d="M-950.3-32.8v-0.9h4.8v0.9h-1.8v4.7h-1.1v-4.7H-950.3z M-942.9-33.7l1.4,4l1.4-4h1.6v5.6h-1v-4.5l-1.6,4.5
			h-0.9l-1.6-4.5v4.5h-1v-5.6H-942.9z"/>
	</g>
</g>
<g>
	<path class="st1" d="M-457.4,101.2c0.2,1.6-1.2,2.7-2.9,3c-1.5,0.3-3.1-0.1-3.7-1.5c-0.7-1.6-2.3-12.6-2.5-15.9
		c-0.1-1.1,0.3-4,4.3-4.5c10.8-1.2,47.2-8.1,56.9-10.2c3.8-0.8,4.7,1.8,5,2.8c0.8,3.2,2.7,12.1,3.2,15.3c0.2,1.7-1.4,3-3.3,3.3
		c-1.7,0.3-3.6-0.2-4-2.2c-1.7-7.5-7-11.4-15.1-9.8c-4.8,1-4.9,2.8-4.5,6.3c1.3,10.3,5.7,34,9.5,48.6c0.8,2.9,2.6,4.4,7.5,3
		c2.1-0.7,3.4,1,3.8,2.8s-0.4,3.9-2.5,4.1c-7.8,1.1-25.2,4.3-30.7,5.5c-2.5,0.6-3.9-1.1-4.2-2.9c-0.3-1.8,0.4-3.7,2.2-3.9
		c3.8-0.5,7.4-1.5,6.9-5.6c-1.7-14.7-5.8-36.5-8-48.3c-0.9-4.3-1.8-5.7-6.8-4.8C-454.3,87.7-458.5,93-457.4,101.2z"/>
	<path class="st1" d="M-318.9,131.6c1.3,0.1,1.8,1.6,1.6,3.1c-0.2,1.6-1.1,3.1-2.5,3.4c-1.2,0.1-6.7,0.6-11,0.2
		c-11.4-1.1-19.3-22.9-23.3-29.4c-0.7-1.1-1.7-3-3.8-3.2l-1.2-0.1c-1.1-0.1-2.3,0-2.5,2.3c-0.3,3.1-0.9,11.3-0.9,13.8
		c0,5.3,2.3,5.5,7,5.5c2,0.1,2.9,2,2.7,3.8s-1.4,3.6-3.6,3.3c-7.7-1.2-20.7-2.5-29.8-3c-2.4-0.1-3.4-1.9-3.2-3.8
		c0.2-1.9,1.7-3.8,4.1-3.2c2.3,0.6,5.6,1.1,6.4-4c2.2-13.1,4.8-43.6,5.1-49.8c0.1-4.3-1.3-3.9-5.3-4c-2,0-2.9-2-2.7-3.8
		c0.2-1.7,1.3-3.4,3.2-3.2c9.1,0.3,24,1.6,27.3,1.9c20,2,30.1,8.7,28.7,22.2c-1.3,12.9-13.2,17.4-15.6,18.3
		c-2.3,0.7-2.3,2.1-1.1,3.9C-335.3,111.4-326.2,130.9-318.9,131.6z M-355.6,98.3c9.1,0.9,15.5-6.2,16.3-15
		c1.1-10.4-4.9-14.5-14.4-15.4c-3.9-0.4-4.4,1.8-4.6,2.8c-0.7,3.4-2.1,20.6-2,23.2c-0.1,2.8,0,4,2,4.2
		C-356.7,98.2-356.9,98.1-355.6,98.3z"/>
	<path class="st2" d="M-274.5,122.8c1.5,0,4.4-0.1,5.8-0.3c6.4-0.5,11.1-5,12.6-11.4c0.5-2.2,2-3.2,3.6-3.2c2.4,0,4.8,2.2,4,5.7
		c-1.2,4-2.7,10.4-3.3,14.2c-0.2,0.7-0.7,1.9-3.3,2c-13.8,0-16.3-0.5-38.1-0.5c-3.7,0-9,0.5-11.1,0.5c-2.4,0.2-3.5-1.6-3.5-3.4
		c0-1.9,1.3-4,3.3-3.6c4.9,0.7,6.2-3.2,6.3-5.3c0.5-9.2,0.6-41.1,0-51.7c-0.1-2.2-2.5-2.4-5.9-1.9c-2.1,0.2-3.3-1.7-3.3-3.6
		c0-1.7,1.1-3.4,3.3-3.3c9.2,0.5,36.6,0.7,47.9,0.1c4.3-0.2,5.7,1.2,5.3,3.5c-0.3,2.9-1,9.6-1.1,11.2c-0.2,2.2-2.2,3.2-4.1,3.2
		c-1.8,0-3.4-0.9-3.4-2.6c0.3-7.2-3.6-8.7-17.1-8.7c-4.4,0-5.3,2.6-5.5,5c-0.2,2.8-0.4,14.3-0.1,17.2c0.1,1.8,0.5,3.2,2.7,3.4
		c1.3,0.1,7.1,0.1,8.7-0.1c3.1-0.3,4.6-1.3,4.6-5.6c0-2,1.8-3.1,3.5-3.1c1.9,0,3.7,1.2,3.6,3.5c-0.4,9.3-0.3,10.7-0.1,17.1
		c0.1,3-1.8,4.2-3.7,4.2c-1.9,0-3.7-1.2-3.6-3.2c0.2-3.8-1.5-5.5-4.3-5.8c-1.9-0.2-7.2-0.2-8.7-0.1c-1.6,0.2-2.4,1.4-2.6,3.5
		c-0.4,4.3-0.1,12.7,0.3,17.1C-281.5,120.9-279.9,122.8-274.5,122.8z"/>
	<path class="st1" d="M-210.3,151.5c1.5,0.2,4.3,0.5,5.8,0.5c6.4,0.4,11.7-3.3,14.2-9.4c0.9-2.1,2.5-2.9,4.1-2.6
		c2.3,0.4,4.4,2.9,3.1,6.2c-1.8,3.7-4.2,9.9-5.4,13.6c-0.3,0.7-1,1.8-3.6,1.5c-13.6-2.1-16-3-37.6-6.2c-3.7-0.6-9-0.8-11.1-1.1
		c-2.4-0.1-3.2-2.1-3-3.9c0.3-1.9,1.9-3.7,3.8-3.1c4.8,1.5,6.6-2.2,7-4.3c1.9-9,6.8-40.5,7.7-51.2c0.2-2.2-2.1-2.7-5.5-2.8
		c-2.1-0.1-3-2.2-2.7-4.1c0.3-1.7,1.6-3.2,3.8-2.8c9,1.9,36,6.2,47.3,7.3c4.3,0.4,5.4,2,4.8,4.3c-0.7,2.8-2.4,9.4-2.7,10.9
		c-0.5,2.2-2.7,2.8-4.5,2.6c-1.8-0.3-3.3-1.4-3-3c1.4-7-2.3-9.1-15.6-11.1c-4.3-0.7-5.7,1.7-6.1,4.2c-0.6,2.7-2.6,14.1-2.7,17
		c-0.2,1.8,0,3.3,2.1,3.8c1.3,0.3,7,1.2,8.6,1.2c3.1,0.1,4.7-0.6,5.4-4.8c0.3-2,2.3-2.8,4-2.5c1.9,0.3,3.5,1.7,3.1,4
		c-1.8,9.1-1.9,10.5-2.7,16.9c-0.3,3-2.4,3.9-4.3,3.6c-1.9-0.3-3.5-1.7-3.1-3.7c0.8-3.8-0.7-5.6-3.4-6.3c-1.9-0.5-7.1-1.3-8.5-1.4
		c-1.6,0-2.5,1-3.1,3.1c-1.1,4.2-2,12.6-2.2,17C-216.9,148.6-215.6,150.7-210.3,151.5z"/>
	<path class="st1" d="M-437.1,227c-0.6-3.8-2.2-11.7-3.1-15.1c-0.7-2.5-2.1-2.7-4.1-2.6c-4.6,0.5-18,3.3-24.3,5.2
		c-2.3,0.7-3.2,1.7-2.9,4.3c0.7,5.3,2.7,13.4,3.5,15.9c0.8,2.5,1.4,3.1,5.7,1.9c1.9-0.6,3.2,0.7,3.5,2.2c0.3,1.6-0.4,3.5-2.3,3.8
		c-7.1,1.3-18.7,3.4-25.5,5.2c-2.2,0.5-3.5-0.9-3.8-2.4c-0.3-1.5,0.4-3.2,2.2-3.5c2.6-0.3,6-0.9,5.3-5c-4-20.9-8.9-44.1-9.9-46.3
		c-0.8-1.7-1.9-2.7-4.9-1.6c-1.5,0.6-2.8-0.9-3.2-2.5c-0.3-1.5,0.2-3.1,1.9-3.5c9-1.6,17.4-3.2,23.3-4.8c2.3-0.5,3.5,0.7,3.8,2.1
		c0.3,1.7-0.5,3.7-2.1,3.9c-3.6,0.3-4.5,0.9-3.9,4.2c0,0,2.1,11.7,3.2,15.8c0.4,2.1,1.2,3.6,3.8,3.3c3.1-0.4,20.3-4.1,25.2-5.7
		c1.9-0.7,3-2.4,2.8-3.7c-1.3-7-3-14.9-3.8-16.8c-0.8-2.2-2.3-2.8-5.3-1.9c-1.6,0.4-2.7-0.9-3.1-2.4c-0.3-1.6,0.3-3.3,2.1-3.5
		c9.3-1.2,16.8-3.2,22.6-4.6c2.3-0.6,3.5,0.7,3.8,2.1c0.3,1.5-0.4,3.4-1.6,3.6c-3.6,0.5-4,1.2-4,3.3c0.1,1.5,7.7,40.5,9.8,47
		c0.9,2.5,1.9,3.1,5.7,2c2-0.6,3.4,0.8,3.7,2.4c0.3,1.7-0.3,3.6-2.4,3.8c-6.3,0.8-21.4,4.3-25.4,5.2c-2.1,0.4-3.3-0.9-3.6-2.4
		c-0.3-1.6,0.4-3.3,2.1-3.5C-439.5,232.3-436.4,231.8-437.1,227z"/>
	<path class="st2" d="M-377.7,151.4c24.7,0,39.8,13.9,39.8,37c0,22.1-15.5,38.4-39.8,38.4c-24.7,0-39.3-15.2-39.3-38.4
		C-417.1,166.5-401.3,151.4-377.7,151.4z M-375,218.9c12.5,0,19.6-11.2,19.6-26.3c0-21.2-11.3-33.4-24.7-33.4
		c-12.3,0-19.6,9.6-19.6,25.2C-399.6,205.5-388.3,218.9-375,218.9z"/>
	<path class="st1" d="M-271,160.1c0.3-5.6-1.3-8.2-8.4-8.5c-2,0-3-1.9-2.9-3.7c0.1-1.7,1.2-3.3,3.5-3.1c9.4,1.4,16.4,1.5,23,1.6
		c2.8,0.1,3.7,1.9,3.6,3.6c-0.1,1.8-1.4,3.5-3.2,3.3c-4.8-0.4-6.1,3.1-6.6,7.2c-1,10.6-3,40.6-3.8,50.6c-1.4,17.8-9.7,30-32.5,28.5
		c-18.2-1.2-29.1-10.4-27.5-33.2c1-14.3,1.5-22.4,2.2-32.5c0.2-2.8-2.3-4.2-5.6-4.1c-2,0.2-3-1.7-2.9-3.5c0.1-1.7,1.3-3.3,3.3-3.1
		c11.1,1.6,21.8,1.8,28.5,1.9c2.7,0.2,3.6,1.9,3.5,3.6c-0.1,1.8-1.4,3.5-3.3,3.2c-4.5-0.7-6.1,0.8-6.5,3.1
		c-1.2,10.3-2.2,22.7-2.3,33.1c-0.2,12.5,2.8,21.8,16.1,22.7c11.4,0.8,16.7-5.8,18.1-20.3C-273.5,199.1-271.7,171.8-271,160.1z"/>
	<path class="st1" d="M-250.9,235.2c-0.1-2.7,0.4-9.4,1.2-12.6c0.5-1.8,2.7-2.7,4.6-2.7c1.8,0,3.5,0.7,3.5,2.5c0,6.3,4.2,13,12.4,13
		c6.6,0,11-4.1,11-9.3c0-13.7-32.2-17.2-32.2-38.8c0-9.8,7.6-19.8,25-19.8c9.7,0,19.4,2.5,20.6,4c1.4,1,1.4,10.2,1.3,14.3
		c-0.1,2.6-2.8,4.1-5.1,4.1c-1.8,0-3.3-0.9-3.4-2.9c-0.3-7.6-5-12.5-12.4-12.5c-6.2,0-10.6,3.7-10.6,8.4c0,15.1,33.7,17.9,33.7,38.1
		c0,11.1-8.4,21.8-26.8,21.8C-239.6,242.8-250.6,238.9-250.9,235.2z"/>
	<path class="st2" d="M-166.5,245.5c1.5,0.3,4.3,0.7,5.7,0.8c6.4,0.7,11.9-2.8,14.6-8.8c1-2.1,2.6-2.8,4.2-2.4
		c2.3,0.5,4.3,3.1,2.8,6.3c-1.9,3.7-4.6,9.7-6,13.3c-0.4,0.7-1.1,1.7-3.6,1.3c-13.5-2.7-15.8-3.7-37.2-7.9c-3.7-0.7-8.9-1.2-11-1.6
		c-2.3-0.2-3.1-2.3-2.8-4c0.4-1.9,2-3.6,4-2.9c4.7,1.7,6.7-1.9,7.2-4c2.3-8.9,8.6-40.1,10.1-50.8c0.3-2.2-2-2.8-5.4-3
		c-2.1-0.2-2.9-2.3-2.5-4.2c0.3-1.7,1.7-3.1,3.9-2.6c8.9,2.3,35.7,7.9,47,9.4c4.2,0.6,5.3,2.3,4.6,4.5c-0.9,2.8-2.8,9.3-3.2,10.8
		c-0.6,2.2-2.8,2.7-4.6,2.4c-1.8-0.4-3.2-1.5-2.9-3.2c1.7-7-1.9-9.2-15.1-11.8c-4.3-0.9-5.7,1.5-6.3,3.9c-0.8,2.7-3.2,14-3.5,16.9
		c-0.2,1.8-0.1,3.3,2,3.9c1.2,0.4,6.9,1.5,8.5,1.6c3.1,0.3,4.8-0.4,5.6-4.6c0.4-2,2.4-2.7,4.1-2.4c1.9,0.4,3.4,1.9,2.9,4.2
		c-2.2,9-2.4,10.4-3.4,16.8c-0.5,3-2.6,3.7-4.5,3.4c-1.9-0.4-3.4-1.9-2.9-3.9c1-3.7-0.4-5.6-3.1-6.5c-1.8-0.6-7-1.6-8.5-1.8
		c-1.6-0.1-2.6,0.9-3.2,3c-1.3,4.1-2.6,12.5-3,16.8C-173,242.3-171.8,244.5-166.5,245.5z"/>
	<path class="st3" d="M-356.6,250.1c-1.7-2-2.8-4.2-7.5-3.7c-1.9,0.2-3-1.6-3-3.4c0-1.7,1-3.4,3.2-3.3c13,0.6,23.5,0.4,30.5,0
		c2.6,0,3.6,1.6,3.6,3.3c0,1.8-1.3,3.7-3.1,3.4c-4.2-0.5-6.6,1-4.5,4.2c2.1,3.4,31.3,40.1,35.1,44.4c2.1,2.2,3.4,1.4,5-0.4
		c3.3-3.5,16.9-22.9,19.4-26.9c1.5-2.2,1.1-4.7-5-4.2c-2.1,0.2-3.2-1.6-3.2-3.4c0-1.7,1-3.3,3.2-3.3c8,0.2,14.9,0.7,25.4,0
		c2.6-0.1,3.6,1.6,3.6,3.3c0,1.8-1.2,3.5-3.1,3.4c-4.7-0.1-6.5,1.6-9.5,4.6c-4,4.2-20.9,27.2-25.2,33.2c-1.4,2-2.2,3.1-0.4,6
		c3.7,5.9,11.9,17.4,20.3,26.3c2,2.2,3.4,3.1,7.1,2.7c2.4-0.3,3.6,1.6,3.6,3.5c0,1.8-1.2,3.6-3.4,3.5c-8-0.5-22.9-0.6-33.4,0
		c-2.2,0.2-3.4-1.6-3.4-3.5c0-1.8,1.1-3.6,3.3-3.4c3.3,0.3,6.6-0.2,4.3-4.2c-2-3.7-6.7-10.2-9.7-13.6c-0.9-1-2-2.8-4.8-0.1
		c-3.2,3-7.6,9.2-9.9,13.2c-1.9,3-2,5.2,3.2,4.7c2.5-0.3,3.6,1.6,3.6,3.5c0,1.7-1,3.4-2.9,3.4c-9.3-0.2-18.5-0.6-25.7,0
		c-2.9,0.1-4.2-1.6-4.2-3.4c0-1.8,1.4-3.8,3.3-3.6c4.2,0.5,8.8-2.2,10.9-4.8c4.8-5.7,12-14.1,16-19.9c1.8-2.6,2-3.5,0.2-6.2
		C-319.3,296.5-350.1,258-356.6,250.1z"/>
	<g>
		<path class="st1" d="M-154.3,80v-1.3h6.5V80h-2.5v6.3h-1.5V80H-154.3z M-144.4,78.7l1.9,5.4l1.9-5.4h2.2v7.6h-1.4v-6.1l-2.1,6.1
			h-1.2l-2.1-6.1v6.1h-1.4v-7.6H-144.4z"/>
	</g>
</g>
<g>
	<path class="st1" d="M108.6,101.2c0.2,1.6-1.2,2.7-2.9,3c-1.5,0.3-3.1-0.1-3.7-1.5c-0.7-1.6-2.3-12.6-2.5-15.9
		c-0.1-1.1,0.3-4,4.3-4.5c10.8-1.2,47.2-8.1,56.9-10.2c3.8-0.8,4.7,1.8,5,2.8c0.8,3.2,2.7,12.1,3.2,15.3c0.2,1.7-1.4,3-3.3,3.3
		c-1.7,0.3-3.6-0.2-4-2.2c-1.7-7.5-7-11.4-15.1-9.8c-4.8,1-4.9,2.8-4.5,6.3c1.3,10.3,5.7,34,9.5,48.6c0.8,2.9,2.6,4.4,7.5,3
		c2.1-0.7,3.4,1,3.8,2.8c0.3,1.8-0.4,3.9-2.5,4.1c-7.8,1.1-25.2,4.3-30.7,5.5c-2.5,0.6-3.9-1.1-4.2-2.9s0.4-3.7,2.2-3.9
		c3.8-0.5,7.4-1.5,6.9-5.6c-1.7-14.7-5.8-36.5-8-48.3c-0.9-4.3-1.8-5.7-6.8-4.8C111.7,87.7,107.5,93,108.6,101.2z"/>
	<path class="st1" d="M247.1,131.6c1.3,0.1,1.8,1.6,1.6,3.1c-0.2,1.6-1.1,3.1-2.5,3.4c-1.2,0.1-6.7,0.6-11,0.2
		c-11.4-1.1-19.3-22.9-23.3-29.4c-0.7-1.1-1.7-3-3.8-3.2l-1.2-0.1c-1.1-0.1-2.3,0-2.5,2.3c-0.3,3.1-0.9,11.3-0.9,13.8
		c0,5.3,2.3,5.5,7,5.5c2,0.1,2.9,2,2.7,3.8c-0.2,1.8-1.4,3.6-3.6,3.3c-7.7-1.2-20.7-2.5-29.8-3c-2.4-0.1-3.4-1.9-3.2-3.8
		c0.2-1.9,1.7-3.8,4.1-3.2c2.3,0.6,5.6,1.1,6.4-4c2.2-13.1,4.8-43.6,5.1-49.8c0.1-4.3-1.3-3.9-5.3-4c-2,0-2.9-2-2.7-3.8
		c0.2-1.7,1.3-3.4,3.2-3.2c9.1,0.3,24,1.6,27.3,1.9c20,2,30.1,8.7,28.7,22.2c-1.3,12.9-13.2,17.4-15.6,18.3
		c-2.3,0.7-2.3,2.1-1.1,3.9C230.7,111.4,239.8,130.9,247.1,131.6z M210.4,98.3c9.1,0.9,15.5-6.2,16.3-15
		c1.1-10.4-4.9-14.5-14.4-15.4c-3.9-0.4-4.4,1.8-4.6,2.8c-0.7,3.4-2.1,20.6-2,23.2c-0.1,2.8,0,4,2,4.2
		C209.3,98.2,209.1,98.1,210.4,98.3z"/>
	<path class="st2" d="M291.5,122.8c1.5,0,4.4-0.1,5.8-0.3c6.4-0.5,11.1-5,12.6-11.4c0.5-2.2,2-3.2,3.6-3.2c2.4,0,4.8,2.2,4,5.7
		c-1.2,4-2.7,10.4-3.3,14.2c-0.2,0.7-0.7,1.9-3.3,2c-13.8,0-16.3-0.5-38.1-0.5c-3.7,0-9,0.5-11.1,0.5c-2.4,0.2-3.5-1.6-3.5-3.4
		c0-1.9,1.3-4,3.3-3.6c4.9,0.7,6.2-3.2,6.3-5.3c0.5-9.2,0.6-41.1,0-51.7c-0.1-2.2-2.5-2.4-5.9-1.9c-2.1,0.2-3.3-1.7-3.3-3.6
		c0-1.7,1.1-3.4,3.3-3.3c9.2,0.5,36.6,0.7,47.9,0.1c4.3-0.2,5.7,1.2,5.3,3.5c-0.3,2.9-1,9.6-1.1,11.2c-0.2,2.2-2.2,3.2-4.1,3.2
		c-1.8,0-3.4-0.9-3.4-2.6c0.3-7.2-3.6-8.7-17.1-8.7c-4.4,0-5.3,2.6-5.5,5c-0.2,2.8-0.4,14.3-0.1,17.2c0.1,1.8,0.5,3.2,2.7,3.4
		c1.3,0.1,7.1,0.1,8.7-0.1c3.1-0.3,4.6-1.3,4.6-5.6c0-2,1.8-3.1,3.5-3.1c1.9,0,3.7,1.2,3.6,3.5c-0.4,9.3-0.3,10.7-0.1,17.1
		c0.1,3-1.8,4.2-3.7,4.2c-1.9,0-3.7-1.2-3.6-3.2c0.2-3.8-1.5-5.5-4.3-5.8c-1.9-0.2-7.2-0.2-8.7-0.1c-1.6,0.2-2.4,1.4-2.6,3.5
		c-0.4,4.3-0.1,12.7,0.3,17.1C284.5,120.9,286.1,122.8,291.5,122.8z"/>
	<path class="st1" d="M355.7,151.5c1.5,0.2,4.3,0.5,5.8,0.5c6.4,0.4,11.7-3.3,14.2-9.4c0.9-2.1,2.5-2.9,4.1-2.6
		c2.3,0.4,4.4,2.9,3.1,6.2c-1.8,3.7-4.2,9.9-5.4,13.6c-0.3,0.7-1,1.8-3.6,1.5c-13.6-2.1-16-3-37.6-6.2c-3.7-0.6-9-0.8-11.1-1.1
		c-2.4-0.1-3.2-2.1-3-3.9c0.3-1.9,1.9-3.7,3.8-3.1c4.8,1.5,6.6-2.2,7-4.3c1.9-9,6.8-40.5,7.7-51.2c0.2-2.2-2.1-2.7-5.5-2.8
		c-2.1-0.1-3-2.2-2.7-4.1c0.3-1.7,1.6-3.2,3.8-2.8c9,1.9,36,6.2,47.3,7.3c4.3,0.4,5.4,2,4.8,4.3c-0.7,2.8-2.4,9.4-2.7,10.9
		c-0.5,2.2-2.7,2.8-4.5,2.6c-1.8-0.3-3.3-1.4-3-3c1.4-7-2.3-9.1-15.6-11.1c-4.3-0.7-5.7,1.7-6.1,4.2c-0.6,2.7-2.6,14.1-2.7,17
		c-0.2,1.8,0,3.3,2.1,3.8c1.3,0.3,7,1.2,8.6,1.2c3.1,0.1,4.7-0.6,5.4-4.8c0.3-2,2.3-2.8,4-2.5c1.9,0.3,3.5,1.7,3.1,4
		c-1.8,9.1-1.9,10.5-2.7,16.9c-0.3,3-2.4,3.9-4.3,3.6c-1.9-0.3-3.5-1.7-3.1-3.7c0.8-3.8-0.7-5.6-3.4-6.3c-1.9-0.5-7.1-1.3-8.5-1.4
		c-1.6,0-2.5,1-3.1,3.1c-1.1,4.2-2,12.6-2.2,17C349.1,148.6,350.4,150.7,355.7,151.5z"/>
	<path class="st1" d="M128.9,227c-0.6-3.8-2.2-11.7-3.1-15.1c-0.7-2.5-2.1-2.7-4.1-2.6c-4.6,0.5-18,3.3-24.3,5.2
		c-2.3,0.7-3.2,1.7-2.9,4.3c0.7,5.3,2.7,13.4,3.5,15.9c0.8,2.5,1.4,3.1,5.7,1.9c1.9-0.6,3.2,0.7,3.5,2.2c0.3,1.6-0.4,3.5-2.3,3.8
		c-7.1,1.3-18.7,3.4-25.5,5.2c-2.2,0.5-3.5-0.9-3.8-2.4c-0.3-1.5,0.4-3.2,2.2-3.5c2.6-0.3,6-0.9,5.3-5c-4-20.9-8.9-44.1-9.9-46.3
		c-0.8-1.7-1.9-2.7-4.9-1.6c-1.5,0.6-2.8-0.9-3.2-2.5c-0.3-1.5,0.2-3.1,1.9-3.5c9-1.6,17.4-3.2,23.3-4.8c2.3-0.5,3.5,0.7,3.8,2.1
		c0.3,1.7-0.5,3.7-2.1,3.9c-3.6,0.3-4.5,0.9-3.9,4.2c0,0,2.1,11.7,3.2,15.8c0.4,2.1,1.2,3.6,3.8,3.3c3.1-0.4,20.3-4.1,25.2-5.7
		c1.9-0.7,3-2.4,2.8-3.7c-1.3-7-3-14.9-3.8-16.8c-0.8-2.2-2.3-2.8-5.3-1.9c-1.6,0.4-2.7-0.9-3.1-2.4c-0.3-1.6,0.3-3.3,2.1-3.5
		c9.3-1.2,16.8-3.2,22.6-4.6c2.3-0.6,3.5,0.7,3.8,2.1c0.3,1.5-0.4,3.4-1.6,3.6c-3.6,0.5-4,1.2-4,3.3c0.1,1.5,7.7,40.5,9.8,47
		c0.9,2.5,1.9,3.1,5.7,2c2-0.6,3.4,0.8,3.7,2.4c0.3,1.7-0.3,3.6-2.4,3.8c-6.3,0.8-21.4,4.3-25.4,5.2c-2.1,0.4-3.3-0.9-3.6-2.4
		c-0.3-1.6,0.4-3.3,2.1-3.5C126.5,232.3,129.6,231.8,128.9,227z"/>
	<path class="st2" d="M188.3,151.4c24.7,0,39.8,13.9,39.8,37c0,22.1-15.5,38.4-39.8,38.4c-24.7,0-39.3-15.2-39.3-38.4
		C148.9,166.5,164.7,151.4,188.3,151.4z M191,218.9c12.5,0,19.6-11.2,19.6-26.3c0-21.2-11.3-33.4-24.7-33.4
		c-12.3,0-19.6,9.6-19.6,25.2C166.4,205.5,177.7,218.9,191,218.9z"/>
	<path class="st1" d="M295,160.1c0.3-5.6-1.3-8.2-8.4-8.5c-2,0-3-1.9-2.9-3.7c0.1-1.7,1.2-3.3,3.5-3.1c9.4,1.4,16.4,1.5,23,1.6
		c2.8,0.1,3.7,1.9,3.6,3.6c-0.1,1.8-1.4,3.5-3.2,3.3c-4.8-0.4-6.1,3.1-6.6,7.2c-1,10.6-3,40.6-3.8,50.6c-1.4,17.8-9.7,30-32.5,28.5
		c-18.2-1.2-29.1-10.4-27.5-33.2c1-14.3,1.5-22.4,2.2-32.5c0.2-2.8-2.3-4.2-5.6-4.1c-2,0.2-3-1.7-2.9-3.5c0.1-1.7,1.3-3.3,3.3-3.1
		c11.1,1.6,21.8,1.8,28.5,1.9c2.7,0.2,3.6,1.9,3.5,3.6c-0.1,1.8-1.4,3.5-3.3,3.2c-4.5-0.7-6.1,0.8-6.5,3.1
		c-1.2,10.3-2.2,22.7-2.3,33.1c-0.2,12.5,2.8,21.8,16.1,22.7c11.4,0.8,16.7-5.8,18.1-20.3C292.5,199.1,294.3,171.8,295,160.1z"/>
	<path class="st1" d="M315.1,235.2c-0.1-2.7,0.4-9.4,1.2-12.6c0.5-1.8,2.7-2.7,4.6-2.7c1.8,0,3.5,0.7,3.5,2.5c0,6.3,4.2,13,12.4,13
		c6.6,0,11-4.1,11-9.3c0-13.7-32.2-17.2-32.2-38.8c0-9.8,7.6-19.8,25-19.8c9.7,0,19.4,2.5,20.6,4c1.4,1,1.4,10.2,1.3,14.3
		c-0.1,2.6-2.8,4.1-5.1,4.1c-1.8,0-3.3-0.9-3.4-2.9c-0.3-7.6-5-12.5-12.4-12.5c-6.2,0-10.6,3.7-10.6,8.4c0,15.1,33.7,17.9,33.7,38.1
		c0,11.1-8.4,21.8-26.8,21.8C326.4,242.8,315.4,238.9,315.1,235.2z"/>
	<path class="st2" d="M399.5,245.5c1.5,0.3,4.3,0.7,5.7,0.8c6.4,0.7,11.9-2.8,14.6-8.8c1-2.1,2.6-2.8,4.2-2.4
		c2.3,0.5,4.3,3.1,2.8,6.3c-1.9,3.7-4.6,9.7-6,13.3c-0.4,0.7-1.1,1.7-3.6,1.3c-13.5-2.7-15.8-3.7-37.2-7.9c-3.7-0.7-8.9-1.2-11-1.6
		c-2.3-0.2-3.1-2.3-2.8-4c0.4-1.9,2-3.6,4-2.9c4.7,1.7,6.7-1.9,7.2-4c2.3-8.9,8.6-40.1,10.1-50.8c0.3-2.2-2-2.8-5.4-3
		c-2.1-0.2-2.9-2.3-2.5-4.2c0.3-1.7,1.7-3.1,3.9-2.6c8.9,2.3,35.7,7.9,47,9.4c4.2,0.6,5.3,2.3,4.6,4.5c-0.9,2.8-2.8,9.3-3.2,10.8
		c-0.6,2.2-2.8,2.7-4.6,2.4c-1.8-0.4-3.2-1.5-2.9-3.2c1.7-7-1.9-9.2-15.1-11.8c-4.3-0.9-5.7,1.5-6.3,3.9c-0.8,2.7-3.2,14-3.5,16.9
		c-0.2,1.8-0.1,3.3,2,3.9c1.2,0.4,6.9,1.5,8.5,1.6c3.1,0.3,4.8-0.4,5.6-4.6c0.4-2,2.4-2.7,4.1-2.4c1.9,0.4,3.4,1.9,2.9,4.2
		c-2.2,9-2.4,10.4-3.4,16.8c-0.5,3-2.6,3.7-4.5,3.4c-1.9-0.4-3.4-1.9-2.9-3.9c1-3.7-0.4-5.6-3.1-6.5c-1.8-0.6-7-1.6-8.5-1.8
		c-1.6-0.1-2.6,0.9-3.2,3c-1.3,4.1-2.6,12.5-3,16.8C393,242.3,394.2,244.5,399.5,245.5z"/>
	<path class="st3" d="M209.4,250.1c-1.7-2-2.8-4.2-7.5-3.7c-1.9,0.2-3-1.6-3-3.4c0-1.7,1-3.4,3.2-3.3c13,0.6,23.5,0.4,30.5,0
		c2.6,0,3.6,1.6,3.6,3.3c0,1.8-1.3,3.7-3.1,3.4c-4.2-0.5-6.6,1-4.5,4.2c2.1,3.4,31.3,40.1,35.1,44.4c2.1,2.2,3.4,1.4,5-0.4
		c3.3-3.5,16.9-22.9,19.4-26.9c1.5-2.2,1.1-4.7-5-4.2c-2.1,0.2-3.2-1.6-3.2-3.4c0-1.7,1-3.3,3.2-3.3c8,0.2,14.9,0.7,25.4,0
		c2.6-0.1,3.6,1.6,3.6,3.3c0,1.8-1.2,3.5-3.1,3.4c-4.7-0.1-6.5,1.6-9.5,4.6c-4,4.2-20.9,27.2-25.2,33.2c-1.4,2-2.2,3.1-0.4,6
		c3.7,5.9,11.9,17.4,20.3,26.3c2,2.2,3.4,3.1,7.1,2.7c2.4-0.3,3.6,1.6,3.6,3.5c0,1.8-1.2,3.6-3.4,3.5c-8-0.5-22.9-0.6-33.4,0
		c-2.2,0.2-3.4-1.6-3.4-3.5c0-1.8,1.1-3.6,3.3-3.4c3.3,0.3,6.6-0.2,4.3-4.2c-2-3.7-6.7-10.2-9.7-13.6c-0.9-1-2-2.8-4.8-0.1
		c-3.2,3-7.6,9.2-9.9,13.2c-1.9,3-2,5.2,3.2,4.7c2.5-0.3,3.6,1.6,3.6,3.5c0,1.7-1,3.4-2.9,3.4c-9.3-0.2-18.5-0.6-25.7,0
		c-2.9,0.1-4.2-1.6-4.2-3.4c0-1.8,1.4-3.8,3.3-3.6c4.2,0.5,8.8-2.2,10.9-4.8c4.8-5.7,12-14.1,16-19.9c1.8-2.6,2-3.5,0.2-6.2
		C246.7,296.5,215.9,258,209.4,250.1z"/>
</g>
<rect x="-1290.3" y="274.5" class="st4" width="440.7" height="70.6"/>
<rect x="-1209.5" y="222" style="fill:none;" width="279" height="30.7"/>
<text transform="matrix(1 0 0 1 -1170.479 236.9255)" style="font-family:'Livory-Regular'; font-size:20px; letter-spacing:1;">UPLOAD GEDCOM</text>
</svg>
